<svg xmlns="http://www.w3.org/2000/svg" width="512" height="512" viewBox="0 0 512 512" role="img" aria-label="Odipo C. Odero icon">
  <defs>
    <linearGradient id="g" x1="0" y1="0" x2="1" y2="1">
      <stop offset="0" stop-color="#f4e9dc"/>
      <stop offset="0.5" stop-color="#e9d7c4"/>
      <stop offset="1" stop-color="#d7bba0"/>
    </linearGradient>
    <radialGradient id="r" cx="0.2" cy="0.2" r="0.9">
      <stop offset="0" stop-color="#ffffff" stop-opacity="0.85"/>
      <stop offset="1" stop-color="#ffffff" stop-opacity="0"/>
    </radialGradient>
  </defs>
  <rect width="512" height="512" rx="96" fill="#1a1a1a"/>
  <rect x="20" y="20" width="472" height="472" rx="84" fill="url(#g)"/>
  <circle cx="160" cy="148" r="220" fill="url(#r)"/>
  <g fill="#1a1a1a">
    <path d="M168 344c-38 0-68-28-68-72 0-50 30-96 72-116 12-6 26-10 40-10 40 0 68 22 76 60h-40c-6-20-18-30-36-30-34 0-62 36-62 92 0 34 14 48 36 48 18 0 30-10 38-30h40c-10 42-36 58-96 58z"/>
    <path d="M326 352c-42 0-80-28-80-96 0-70 38-104 80-104 42 0 80 34 80 104 0 68-38 96-80 96zm0-36c22 0 38-20 38-68 0-50-16-72-38-72-22 0-38 22-38 72 0 48 16 68 38 68z"/>
  </g>
  <path d="M120 396c42 38 100 56 168 56 74 0 134-20 176-60" fill="none" stroke="#1a1a1a" stroke-width="8" stroke-linecap="round" opacity="0.5"/>
</svg>
